<mxfile host="app.diagrams.net" modified="2024-01-30T07:20:08.629Z" agent="Mozilla/5.0 (Macintosh; Intel Mac OS X 10_15_7) AppleWebKit/537.36 (KHTML, like Gecko) Chrome/120.0.0.0 Safari/537.36" version="21.6.9" etag="c0pl15i5uXhWtnuRy_zL" type="github">
  <diagram name="第 1 页" id="9d9OtxudLfZxlUFK-ePG">
    <mxGraphModel>
      <root>
        <mxCell id="0" />
        <mxCell id="1" parent="0" />
      </root>
    </mxGraphModel>
  </diagram>
</mxfile>
